<svg xmlns="http://www.w3.org/2000/svg" width="56" height="56">
    <path fill="#4D23CF"
        d="M3 8h1v1H3zM5 8h1v1H5zM13 8h1v1h-1zM20 8h1v1h-1zM23 8h1v1h-1zM24 8h1v1h-1zM25 8h1v1h-1zM27 8h1v1h-1zM31 8h1v1h-1zM32 8h1v1h-1zM33 8h1v1h-1zM39 8h1v1h-1zM50 8h1v1h-1zM52 8h1v1h-1zM3 9h1v1H3zM5 9h1v1H5zM13 9h1v1h-1zM19 9h1v1h-1zM20 9h1v1h-1zM21 9h1v1h-1zM22 9h1v1h-1zM23 9h1v1h-1zM25 9h1v1h-1zM28 9h1v1h-1zM31 9h1v1h-1zM33 9h1v1h-1zM36 9h1v1h-1zM37 9h1v1h-1zM38 9h1v1h-1zM39 9h1v1h-1zM40 9h1v1h-1zM41 9h1v1h-1zM42 9h1v1h-1zM43 9h1v1h-1zM44 9h1v1h-1zM49 9h1v1h-1zM50 9h1v1h-1zM51 9h1v1h-1zM53 9h1v1h-1zM1 10h1v1H1zM2 10h1v1H2zM4 10h1v1H4zM5 10h1v1H5zM6 10h1v1H6zM7 10h1v1H7zM8 10h1v1H8zM12 10h1v1h-1zM15 10h1v1h-1zM18 10h1v1h-1zM19 10h1v1h-1zM20 10h1v1h-1zM21 10h1v1h-1zM22 10h1v1h-1zM23 10h1v1h-1zM24 10h1v1h-1zM27 10h1v1h-1zM28 10h1v1h-1zM30 10h1v1h-1zM34 10h1v1h-1zM38 10h1v1h-1zM39 10h1v1h-1zM40 10h1v1h-1zM41 10h1v1h-1zM42 10h1v1h-1zM46 10h1v1h-1zM47 10h1v1h-1zM48 10h1v1h-1zM49 10h1v1h-1zM50 10h1v1h-1zM51 10h1v1h-1zM52 10h1v1h-1zM53 10h1v1h-1zM2 11h1v1H2zM5 11h1v1H5zM11 11h1v1h-1zM14 11h1v1h-1zM20 11h1v1h-1zM21 11h1v1h-1zM23 11h1v1h-1zM25 11h1v1h-1zM31 11h1v1h-1zM32 11h1v1h-1zM33 11h1v1h-1zM37 11h1v1h-1zM38 11h1v1h-1zM42 11h1v1h-1zM46 11h1v1h-1zM48 11h1v1h-1zM50 11h1v1h-1zM51 11h1v1h-1zM2 12h1v1H2zM5 12h1v1H5zM10 12h1v1h-1zM14 12h1v1h-1zM18 12h1v1h-1zM19 12h1v1h-1zM22 12h1v1h-1zM23 12h1v1h-1zM25 12h1v1h-1zM29 12h1v1h-1zM33 12h1v1h-1zM36 12h1v1h-1zM38 12h1v1h-1zM39 12h1v1h-1zM40 12h1v1h-1zM41 12h1v1h-1zM42 12h1v1h-1zM46 12h1v1h-1zM48 12h1v1h-1zM50 12h1v1h-1zM51 12h1v1h-1zM53 12h1v1h-1zM2 13h1v1H2zM5 13h1v1H5zM13 13h1v1h-1zM16 13h1v1h-1zM19 13h1v1h-1zM20 13h1v1h-1zM21 13h1v1h-1zM22 13h1v1h-1zM23 13h1v1h-1zM24 13h1v1h-1zM25 13h1v1h-1zM28 13h1v1h-1zM31 13h1v1h-1zM33 13h1v1h-1zM38 13h1v1h-1zM42 13h1v1h-1zM46 13h1v1h-1zM48 13h1v1h-1zM49 13h1v1h-1zM50 13h1v1h-1zM51 13h1v1h-1zM52 13h1v1h-1zM2 14h1v1H2zM5 14h1v1H5zM12 14h1v1h-1zM16 14h1v1h-1zM19 14h1v1h-1zM22 14h1v1h-1zM23 14h1v1h-1zM27 14h1v1h-1zM32 14h1v1h-1zM33 14h1v1h-1zM38 14h1v1h-1zM39 14h1v1h-1zM40 14h1v1h-1zM41 14h1v1h-1zM42 14h1v1h-1zM46 14h1v1h-1zM47 14h1v1h-1zM48 14h1v1h-1zM50 14h1v1h-1zM51 14h1v1h-1zM53 14h1v1h-1zM2 15h1v1H2zM5 15h1v1H5zM11 15h1v1h-1zM12 15h1v1h-1zM13 15h1v1h-1zM14 15h1v1h-1zM15 15h1v1h-1zM17 15h1v1h-1zM19 15h1v1h-1zM20 15h1v1h-1zM21 15h1v1h-1zM22 15h1v1h-1zM23 15h1v1h-1zM27 15h1v1h-1zM30 15h1v1h-1zM31 15h1v1h-1zM33 15h1v1h-1zM34 15h1v1h-1zM38 15h1v1h-1zM42 15h1v1h-1zM49 15h1v1h-1zM50 15h1v1h-1zM52 15h1v1h-1zM53 15h1v1h-1z" />
    <path fill="#FEF" d="M34 25h1v1h-1zM35 25h1v1h-1zM36 25h1v1h-1zM37 25h1v1h-1zM38 25h1v1h-1zM39 25h1v1h-1z" />
    <path fill="#FFD9F0" d="M40 25h1v1h-1z" />
    <path fill="#FFCCED" d="M41 25h1v1h-1zM42 25h1v1h-1z" />
    <path fill="#F0C1E5" d="M43 25h1v1h-1z" />
    <path fill="#FEF" d="M32 26h1v1h-1zM33 26h1v1h-1z" />
    <path fill="#FFD9F0"
        d="M34 26h1v1h-1zM35 26h1v1h-1zM36 26h1v1h-1zM37 26h1v1h-1zM38 26h1v1h-1zM39 26h1v1h-1zM40 26h1v1h-1zM41 26h1v1h-1z" />
    <path fill="#FFCCED" d="M42 26h1v1h-1zM43 26h1v1h-1z" />
    <path fill="#F0C1E5" d="M44 26h1v1h-1z" />
    <path fill="#D8A7D5" d="M45 26h1v1h-1z" />
    <path fill="#FFCCED" d="M30 27h1v1h-1z" />
    <path fill="#FFD9F0"
        d="M31 27h1v1h-1zM32 27h1v1h-1zM33 27h1v1h-1zM34 27h1v1h-1zM35 27h1v1h-1zM36 27h1v1h-1zM37 27h1v1h-1zM38 27h1v1h-1zM39 27h1v1h-1zM40 27h1v1h-1zM41 27h1v1h-1zM42 27h1v1h-1z" />
    <path fill="#FFCCED" d="M43 27h1v1h-1zM44 27h1v1h-1zM45 27h1v1h-1z" />
    <path fill="#D8A7D5" d="M46 27h1v1h-1z" />
    <path fill="#FEF" d="M15 28h1v1h-1zM16 28h1v1h-1zM17 28h1v1h-1zM18 28h1v1h-1z" />
    <path fill="#FFCCED" d="M28 28h1v1h-1zM29 28h1v1h-1z" />
    <path fill="#FFD9F0"
        d="M30 28h1v1h-1zM31 28h1v1h-1zM32 28h1v1h-1zM33 28h1v1h-1zM34 28h1v1h-1zM35 28h1v1h-1zM36 28h1v1h-1zM37 28h1v1h-1zM38 28h1v1h-1zM39 28h1v1h-1zM40 28h1v1h-1zM41 28h1v1h-1zM42 28h1v1h-1zM43 28h1v1h-1zM44 28h1v1h-1z" />
    <path fill="#FFCCED" d="M45 28h1v1h-1zM46 28h1v1h-1z" />
    <path fill="#D8A7D5" d="M47 28h1v1h-1z" />
    <path fill="#FFD9F0" d="M13 29h1v1h-1z" />
    <path fill="#FEF" d="M14 29h1v1h-1z" />
    <path fill="#FFD9F0"
        d="M15 29h1v1h-1zM16 29h1v1h-1zM17 29h1v1h-1zM18 29h1v1h-1zM19 29h1v1h-1zM20 29h1v1h-1zM21 29h1v1h-1z" />
    <path fill="#FFCCED" d="M26 29h1v1h-1zM27 29h1v1h-1zM28 29h1v1h-1z" />
    <path fill="#FFD9F0"
        d="M29 29h1v1h-1zM30 29h1v1h-1zM31 29h1v1h-1zM32 29h1v1h-1zM33 29h1v1h-1zM34 29h1v1h-1zM35 29h1v1h-1zM36 29h1v1h-1zM37 29h1v1h-1zM38 29h1v1h-1zM39 29h1v1h-1zM40 29h1v1h-1zM41 29h1v1h-1zM42 29h1v1h-1z" />
    <path fill="#FFCCED" d="M43 29h1v1h-1z" />
    <path fill="#FFD9F0" d="M44 29h1v1h-1zM45 29h1v1h-1z" />
    <path fill="#FFCCED" d="M46 29h1v1h-1zM47 29h1v1h-1z" />
    <path fill="#D8A7D5" d="M48 29h1v1h-1zM5 30h1v1H5z" />
    <path fill="#F0C1E5" d="M6 30h1v1H6z" />
    <path fill="#FFD9F0"
        d="M7 30h1v1H7zM8 30h1v1H8zM9 30h1v1H9zM10 30h1v1h-1zM11 30h1v1h-1zM12 30h1v1h-1zM13 30h1v1h-1zM14 30h1v1h-1zM15 30h1v1h-1zM16 30h1v1h-1z" />
    <path fill="#FFCCED" d="M17 30h1v1h-1zM18 30h1v1h-1zM19 30h1v1h-1zM20 30h1v1h-1zM21 30h1v1h-1z" />
    <path fill="#FFD9F0" d="M22 30h1v1h-1z" />
    <path fill="#FFCCED" d="M23 30h1v1h-1z" />
    <path fill="#D8A7D5" d="M24 30h1v1h-1z" />
    <path fill="#F0C1E5" d="M25 30h1v1h-1z" />
    <path fill="#FFCCED" d="M26 30h1v1h-1zM27 30h1v1h-1zM28 30h1v1h-1zM29 30h1v1h-1z" />
    <path fill="#FFD9F0"
        d="M30 30h1v1h-1zM31 30h1v1h-1zM32 30h1v1h-1zM33 30h1v1h-1zM34 30h1v1h-1zM35 30h1v1h-1zM36 30h1v1h-1zM37 30h1v1h-1zM38 30h1v1h-1zM39 30h1v1h-1zM40 30h1v1h-1zM41 30h1v1h-1zM42 30h1v1h-1z" />
    <path fill="#FFCCED" d="M43 30h1v1h-1z" />
    <path fill="#F0C1E5" d="M44 30h1v1h-1z" />
    <path fill="#FFCCED" d="M45 30h1v1h-1z" />
    <path fill="#FFD9F0" d="M46 30h1v1h-1z" />
    <path fill="#FFCCED" d="M47 30h1v1h-1zM48 30h1v1h-1z" />
    <path fill="#D8A7D5" d="M49 30h1v1h-1z" />
    <path fill="#BD88C7" d="M5 31h1v1H5z" />
    <path fill="#F0C1E5" d="M6 31h1v1H6z" />
    <path fill="#FFCCED" d="M7 31h1v1H7z" />
    <path fill="#FFD9F0" d="M8 31h1v1H8zM9 31h1v1H9zM10 31h1v1h-1zM11 31h1v1h-1zM12 31h1v1h-1z" />
    <path fill="#FFCCED"
        d="M13 31h1v1h-1zM14 31h1v1h-1zM15 31h1v1h-1zM16 31h1v1h-1zM17 31h1v1h-1zM18 31h1v1h-1zM19 31h1v1h-1zM20 31h1v1h-1zM21 31h1v1h-1zM22 31h1v1h-1zM23 31h1v1h-1zM24 31h1v1h-1z" />
    <path fill="#F0C1E5" d="M25 31h1v1h-1z" />
    <path fill="#FFCCED" d="M26 31h1v1h-1zM27 31h1v1h-1zM28 31h1v1h-1zM29 31h1v1h-1zM30 31h1v1h-1z" />
    <path fill="#FFD9F0"
        d="M31 31h1v1h-1zM32 31h1v1h-1zM33 31h1v1h-1zM34 31h1v1h-1zM35 31h1v1h-1zM36 31h1v1h-1zM37 31h1v1h-1zM38 31h1v1h-1zM39 31h1v1h-1zM40 31h1v1h-1zM41 31h1v1h-1z" />
    <path fill="#FFCCED" d="M42 31h1v1h-1zM43 31h1v1h-1zM44 31h1v1h-1z" />
    <path fill="#F0C1E5" d="M45 31h1v1h-1z" />
    <path fill="#FFCCED" d="M46 31h1v1h-1z" />
    <path fill="#FFD9F0" d="M47 31h1v1h-1z" />
    <path fill="#FFCCED" d="M48 31h1v1h-1z" />
    <path fill="#D8A7D5" d="M49 31h1v1h-1z" />
    <path fill="#BD88C7" d="M6 32h1v1H6z" />
    <path fill="#F0C1E5" d="M7 32h1v1H7z" />
    <path fill="#FFCCED"
        d="M8 32h1v1H8zM9 32h1v1H9zM10 32h1v1h-1zM11 32h1v1h-1zM12 32h1v1h-1zM13 32h1v1h-1zM14 32h1v1h-1zM15 32h1v1h-1z" />
    <path fill="#D8A7D5" d="M16 32h1v1h-1zM17 32h1v1h-1zM18 32h1v1h-1zM19 32h1v1h-1z" />
    <path fill="#E5B4E7" d="M20 32h1v1h-1z" />
    <path fill="#F0C1E5" d="M21 32h1v1h-1zM22 32h1v1h-1z" />
    <path fill="#FFCCED"
        d="M23 32h1v1h-1zM24 32h1v1h-1zM25 32h1v1h-1zM26 32h1v1h-1zM27 32h1v1h-1zM28 32h1v1h-1zM29 32h1v1h-1zM30 32h1v1h-1zM31 32h1v1h-1zM32 32h1v1h-1zM33 32h1v1h-1zM34 32h1v1h-1zM35 32h1v1h-1z" />
    <path fill="#FFD9F0" d="M36 32h1v1h-1zM37 32h1v1h-1zM38 32h1v1h-1zM39 32h1v1h-1z" />
    <path fill="#FFCCED" d="M40 32h1v1h-1zM41 32h1v1h-1zM42 32h1v1h-1zM43 32h1v1h-1zM44 32h1v1h-1zM45 32h1v1h-1z" />
    <path fill="#F0C1E5" d="M46 32h1v1h-1z" />
    <path fill="#FFD9F0" d="M47 32h1v1h-1z" />
    <path fill="#FFCCED" d="M48 32h1v1h-1z" />
    <path fill="#D8A7D5" d="M49 32h1v1h-1z" />
    <path fill="#BD88C7" d="M7 33h1v1H7z" />
    <path fill="#F0C1E5" d="M8 33h1v1H8zM9 33h1v1H9zM10 33h1v1h-1zM11 33h1v1h-1z" />
    <path fill="#FFCCED" d="M12 33h1v1h-1zM13 33h1v1h-1zM14 33h1v1h-1zM15 33h1v1h-1z" />
    <path fill="#BD88C7" d="M16 33h1v1h-1z" />
    <path fill="#FFD9F0"
        d="M17 33h1v1h-1zM18 33h1v1h-1zM19 33h1v1h-1zM20 33h1v1h-1zM21 33h1v1h-1zM22 33h1v1h-1zM23 33h1v1h-1z" />
    <path fill="#FFCCED" d="M24 33h1v1h-1zM25 33h1v1h-1zM26 33h1v1h-1zM27 33h1v1h-1z" />
    <path fill="#F0C1E5" d="M28 33h1v1h-1z" />
    <path fill="#FFCCED"
        d="M29 33h1v1h-1zM30 33h1v1h-1zM31 33h1v1h-1zM32 33h1v1h-1zM33 33h1v1h-1zM34 33h1v1h-1zM35 33h1v1h-1zM36 33h1v1h-1zM37 33h1v1h-1zM38 33h1v1h-1zM39 33h1v1h-1zM40 33h1v1h-1zM41 33h1v1h-1zM42 33h1v1h-1zM43 33h1v1h-1zM44 33h1v1h-1zM45 33h1v1h-1z" />
    <path fill="#F0C1E5" d="M46 33h1v1h-1z" />
    <path fill="#FFD9F0" d="M47 33h1v1h-1zM48 33h1v1h-1z" />
    <path fill="#F0C1E5" d="M49 33h1v1h-1z" />
    <path fill="#D8A7D5" d="M50 33h1v1h-1z" />
    <path fill="#BD88C7" d="M8 34h1v1H8z" />
    <path fill="#F0C1E5" d="M9 34h1v1H9zM10 34h1v1h-1z" />
    <path fill="#FFCCED" d="M11 34h1v1h-1zM12 34h1v1h-1zM13 34h1v1h-1zM14 34h1v1h-1zM15 34h1v1h-1zM16 34h1v1h-1z" />
    <path fill="#BD88C7" d="M17 34h1v1h-1z" />
    <path fill="#FFCCED"
        d="M18 34h1v1h-1zM19 34h1v1h-1zM20 34h1v1h-1zM21 34h1v1h-1zM22 34h1v1h-1zM23 34h1v1h-1zM24 34h1v1h-1zM25 34h1v1h-1zM26 34h1v1h-1zM27 34h1v1h-1z" />
    <path fill="#F0C1E5" d="M28 34h1v1h-1zM29 34h1v1h-1zM30 34h1v1h-1z" />
    <path fill="#FFCCED"
        d="M31 34h1v1h-1zM32 34h1v1h-1zM33 34h1v1h-1zM34 34h1v1h-1zM35 34h1v1h-1zM36 34h1v1h-1zM37 34h1v1h-1zM38 34h1v1h-1zM39 34h1v1h-1zM40 34h1v1h-1zM41 34h1v1h-1zM42 34h1v1h-1zM43 34h1v1h-1zM44 34h1v1h-1zM45 34h1v1h-1z" />
    <path fill="#E5B4E7" d="M46 34h1v1h-1z" />
    <path fill="#FFCCED" d="M47 34h1v1h-1z" />
    <path fill="#FFD9F0" d="M48 34h1v1h-1z" />
    <path fill="#FFCCED" d="M49 34h1v1h-1z" />
    <path fill="#D8A7D5" d="M50 34h1v1h-1z" />
    <path fill="#BD88C7" d="M9 35h1v1H9z" />
    <path fill="#F0C1E5" d="M10 35h1v1h-1z" />
    <path fill="#FFCCED"
        d="M11 35h1v1h-1zM12 35h1v1h-1zM13 35h1v1h-1zM14 35h1v1h-1zM15 35h1v1h-1zM16 35h1v1h-1zM17 35h1v1h-1z" />
    <path fill="#BD88C7" d="M18 35h1v1h-1z" />
    <path fill="#F0C1E5" d="M19 35h1v1h-1zM20 35h1v1h-1zM21 35h1v1h-1z" />
    <path fill="#FFCCED" d="M22 35h1v1h-1zM23 35h1v1h-1z" />
    <path fill="#F0C1E5" d="M24 35h1v1h-1zM25 35h1v1h-1zM26 35h1v1h-1zM27 35h1v1h-1zM28 35h1v1h-1z" />
    <path fill="#E5B4E7" d="M29 35h1v1h-1z" />
    <path fill="#F0C1E5" d="M30 35h1v1h-1zM31 35h1v1h-1zM32 35h1v1h-1z" />
    <path fill="#FFCCED"
        d="M33 35h1v1h-1zM34 35h1v1h-1zM35 35h1v1h-1zM36 35h1v1h-1zM37 35h1v1h-1zM38 35h1v1h-1zM39 35h1v1h-1zM40 35h1v1h-1zM41 35h1v1h-1zM42 35h1v1h-1zM43 35h1v1h-1z" />
    <path fill="#F0C1E5" d="M44 35h1v1h-1zM45 35h1v1h-1z" />
    <path fill="#E5B4E7" d="M46 35h1v1h-1z" />
    <path fill="#FFCCED" d="M47 35h1v1h-1z" />
    <path fill="#FFD9F0" d="M48 35h1v1h-1z" />
    <path fill="#FFCCED" d="M49 35h1v1h-1z" />
    <path fill="#D8A7D5" d="M50 35h1v1h-1zM9 36h1v1H9z" />
    <path fill="#F0C1E5" d="M10 36h1v1h-1zM11 36h1v1h-1z" />
    <path fill="#FFCCED" d="M12 36h1v1h-1zM13 36h1v1h-1zM14 36h1v1h-1zM15 36h1v1h-1zM16 36h1v1h-1zM17 36h1v1h-1z" />
    <path fill="#F0C1E5" d="M18 36h1v1h-1z" />
    <path fill="#BD88C7" d="M19 36h1v1h-1z" />
    <path fill="#F0C1E5"
        d="M20 36h1v1h-1zM21 36h1v1h-1zM22 36h1v1h-1zM23 36h1v1h-1zM24 36h1v1h-1zM25 36h1v1h-1zM26 36h1v1h-1zM27 36h1v1h-1zM28 36h1v1h-1zM29 36h1v1h-1z" />
    <path fill="#E5B4E7" d="M30 36h1v1h-1z" />
    <path fill="#F0C1E5" d="M31 36h1v1h-1zM32 36h1v1h-1zM33 36h1v1h-1z" />
    <path fill="#FFCCED"
        d="M34 36h1v1h-1zM35 36h1v1h-1zM36 36h1v1h-1zM37 36h1v1h-1zM38 36h1v1h-1zM39 36h1v1h-1zM40 36h1v1h-1zM41 36h1v1h-1zM42 36h1v1h-1z" />
    <path fill="#F0C1E5" d="M43 36h1v1h-1zM44 36h1v1h-1zM45 36h1v1h-1z" />
    <path fill="#D8A7D5" d="M46 36h1v1h-1z" />
    <path fill="#FFCCED" d="M47 36h1v1h-1z" />
    <path fill="#FFD9F0" d="M48 36h1v1h-1z" />
    <path fill="#FFCCED" d="M49 36h1v1h-1z" />
    <path fill="#D8A7D5" d="M50 36h1v1h-1zM9 37h1v1H9z" />
    <path fill="#F0C1E5" d="M10 37h1v1h-1zM11 37h1v1h-1zM12 37h1v1h-1z" />
    <path fill="#FFCCED" d="M13 37h1v1h-1zM14 37h1v1h-1zM15 37h1v1h-1zM16 37h1v1h-1z" />
    <path fill="#F0C1E5" d="M17 37h1v1h-1zM18 37h1v1h-1zM19 37h1v1h-1z" />
    <path fill="#BD88C7" d="M20 37h1v1h-1z" />
    <path fill="#F0C1E5"
        d="M21 37h1v1h-1zM22 37h1v1h-1zM23 37h1v1h-1zM24 37h1v1h-1zM25 37h1v1h-1zM26 37h1v1h-1zM27 37h1v1h-1zM28 37h1v1h-1zM29 37h1v1h-1zM30 37h1v1h-1z" />
    <path fill="#E5B4E7" d="M31 37h1v1h-1z" />
    <path fill="#F0C1E5" d="M32 37h1v1h-1zM33 37h1v1h-1zM34 37h1v1h-1z" />
    <path fill="#FFCCED" d="M35 37h1v1h-1zM36 37h1v1h-1zM37 37h1v1h-1zM38 37h1v1h-1zM39 37h1v1h-1zM40 37h1v1h-1z" />
    <path fill="#F0C1E5" d="M41 37h1v1h-1zM42 37h1v1h-1zM43 37h1v1h-1zM44 37h1v1h-1z" />
    <path fill="#E5B4E7" d="M45 37h1v1h-1z" />
    <path fill="#D8A7D5" d="M46 37h1v1h-1z" />
    <path fill="#FFCCED" d="M47 37h1v1h-1z" />
    <path fill="#FFD9F0" d="M48 37h1v1h-1z" />
    <path fill="#FFCCED" d="M49 37h1v1h-1z" />
    <path fill="#D8A7D5" d="M50 37h1v1h-1zM9 38h1v1H9z" />
    <path fill="#E5B4E7" d="M10 38h1v1h-1z" />
    <path fill="#F0C1E5"
        d="M11 38h1v1h-1zM12 38h1v1h-1zM13 38h1v1h-1zM14 38h1v1h-1zM15 38h1v1h-1zM16 38h1v1h-1zM17 38h1v1h-1zM18 38h1v1h-1zM19 38h1v1h-1zM20 38h1v1h-1zM21 38h1v1h-1zM22 38h1v1h-1zM23 38h1v1h-1zM24 38h1v1h-1zM25 38h1v1h-1zM26 38h1v1h-1zM27 38h1v1h-1z" />
    <path fill="#FFCCED" d="M28 38h1v1h-1zM29 38h1v1h-1z" />
    <path fill="#F0C1E5" d="M30 38h1v1h-1z" />
    <path fill="#E5B4E7" d="M31 38h1v1h-1zM32 38h1v1h-1z" />
    <path fill="#F0C1E5"
        d="M33 38h1v1h-1zM34 38h1v1h-1zM35 38h1v1h-1zM36 38h1v1h-1zM37 38h1v1h-1zM38 38h1v1h-1zM39 38h1v1h-1zM40 38h1v1h-1zM41 38h1v1h-1zM42 38h1v1h-1zM43 38h1v1h-1z" />
    <path fill="#E5B4E7" d="M44 38h1v1h-1zM45 38h1v1h-1z" />
    <path fill="#D8A7D5" d="M46 38h1v1h-1z" />
    <path fill="#FFCCED" d="M47 38h1v1h-1z" />
    <path fill="#FFD9F0" d="M48 38h1v1h-1z" />
    <path fill="#F0C1E5" d="M49 38h1v1h-1z" />
    <path fill="#D8A7D5" d="M50 38h1v1h-1zM9 39h1v1H9z" />
    <path fill="#E5B4E7" d="M10 39h1v1h-1z" />
    <path fill="#F0C1E5"
        d="M11 39h1v1h-1zM12 39h1v1h-1zM13 39h1v1h-1zM14 39h1v1h-1zM15 39h1v1h-1zM16 39h1v1h-1zM17 39h1v1h-1zM18 39h1v1h-1zM19 39h1v1h-1zM20 39h1v1h-1zM21 39h1v1h-1zM22 39h1v1h-1zM23 39h1v1h-1zM24 39h1v1h-1z" />
    <path fill="#E5B4E7" d="M25 39h1v1h-1zM26 39h1v1h-1z" />
    <path fill="#FFCCED" d="M27 39h1v1h-1zM28 39h1v1h-1zM29 39h1v1h-1z" />
    <path fill="#F0C1E5" d="M30 39h1v1h-1z" />
    <path fill="#E5B4E7" d="M31 39h1v1h-1z" />
    <path fill="#D8A7D5" d="M32 39h1v1h-1z" />
    <path fill="#F0C1E5"
        d="M33 39h1v1h-1zM34 39h1v1h-1zM35 39h1v1h-1zM36 39h1v1h-1zM37 39h1v1h-1zM38 39h1v1h-1zM39 39h1v1h-1zM40 39h1v1h-1zM41 39h1v1h-1zM42 39h1v1h-1z" />
    <path fill="#E5B4E7" d="M43 39h1v1h-1zM44 39h1v1h-1zM45 39h1v1h-1z" />
    <path fill="#BD88C7" d="M46 39h1v1h-1z" />
    <path fill="#FFCCED" d="M47 39h1v1h-1z" />
    <path fill="#FFD9F0" d="M48 39h1v1h-1z" />
    <path fill="#F0C1E5" d="M49 39h1v1h-1z" />
    <path fill="#D8A7D5" d="M50 39h1v1h-1z" />
    <path fill="#BD88C7" d="M9 40h1v1H9z" />
    <path fill="#E5B4E7" d="M10 40h1v1h-1zM11 40h1v1h-1z" />
    <path fill="#F0C1E5"
        d="M12 40h1v1h-1zM13 40h1v1h-1zM14 40h1v1h-1zM15 40h1v1h-1zM16 40h1v1h-1zM17 40h1v1h-1zM18 40h1v1h-1zM19 40h1v1h-1zM20 40h1v1h-1zM21 40h1v1h-1z" />
    <path fill="#E5B4E7" d="M22 40h1v1h-1zM23 40h1v1h-1zM24 40h1v1h-1zM25 40h1v1h-1z" />
    <path fill="#D8A7D5" d="M26 40h1v1h-1z" />
    <path fill="#FFCCED" d="M27 40h1v1h-1zM28 40h1v1h-1zM29 40h1v1h-1z" />
    <path fill="#F0C1E5" d="M30 40h1v1h-1z" />
    <path fill="#E5B4E7" d="M31 40h1v1h-1z" />
    <path fill="#D8A7D5" d="M32 40h1v1h-1z" />
    <path fill="#E5B4E7" d="M33 40h1v1h-1z" />
    <path fill="#F0C1E5"
        d="M34 40h1v1h-1zM35 40h1v1h-1zM36 40h1v1h-1zM37 40h1v1h-1zM38 40h1v1h-1zM39 40h1v1h-1zM40 40h1v1h-1zM41 40h1v1h-1z" />
    <path fill="#E5B4E7" d="M42 40h1v1h-1zM43 40h1v1h-1zM44 40h1v1h-1zM45 40h1v1h-1z" />
    <path fill="#BD88C7" d="M46 40h1v1h-1z" />
    <path fill="#FFCCED" d="M47 40h1v1h-1z" />
    <path fill="#FFD9F0" d="M48 40h1v1h-1z" />
    <path fill="#F0C1E5" d="M49 40h1v1h-1z" />
    <path fill="#D8A7D5" d="M50 40h1v1h-1z" />
    <path fill="#BD88C7" d="M10 41h1v1h-1z" />
    <path fill="#E5B4E7" d="M11 41h1v1h-1zM12 41h1v1h-1z" />
    <path fill="#F0C1E5"
        d="M13 41h1v1h-1zM14 41h1v1h-1zM15 41h1v1h-1zM16 41h1v1h-1zM17 41h1v1h-1zM18 41h1v1h-1zM19 41h1v1h-1z" />
    <path fill="#E5B4E7" d="M20 41h1v1h-1zM21 41h1v1h-1zM22 41h1v1h-1zM23 41h1v1h-1zM24 41h1v1h-1z" />
    <path fill="#D8A7D5" d="M25 41h1v1h-1z" />
    <path fill="#F0C1E5" d="M26 41h1v1h-1z" />
    <path fill="#FFCCED" d="M27 41h1v1h-1zM28 41h1v1h-1zM29 41h1v1h-1z" />
    <path fill="#F0C1E5" d="M30 41h1v1h-1z" />
    <path fill="#E5B4E7" d="M31 41h1v1h-1z" />
    <path fill="#D8A7D5" d="M32 41h1v1h-1z" />
    <path fill="#E5B4E7" d="M33 41h1v1h-1z" />
    <path fill="#F0C1E5"
        d="M34 41h1v1h-1zM35 41h1v1h-1zM36 41h1v1h-1zM37 41h1v1h-1zM38 41h1v1h-1zM39 41h1v1h-1zM40 41h1v1h-1z" />
    <path fill="#E5B4E7" d="M41 41h1v1h-1zM42 41h1v1h-1zM43 41h1v1h-1z" />
    <path fill="#D8A7D5" d="M44 41h1v1h-1zM45 41h1v1h-1z" />
    <path fill="#BD88C7" d="M46 41h1v1h-1z" />
    <path fill="#FFD9F0" d="M47 41h1v1h-1z" />
    <path fill="#FFCCED" d="M48 41h1v1h-1z" />
    <path fill="#F0C1E5" d="M49 41h1v1h-1z" />
    <path fill="#BD88C7" d="M50 41h1v1h-1zM10 42h1v1h-1z" />
    <path fill="#E5B4E7"
        d="M11 42h1v1h-1zM12 42h1v1h-1zM13 42h1v1h-1zM14 42h1v1h-1zM15 42h1v1h-1zM16 42h1v1h-1zM17 42h1v1h-1zM18 42h1v1h-1zM19 42h1v1h-1zM20 42h1v1h-1zM21 42h1v1h-1zM22 42h1v1h-1z" />
    <path fill="#D8A7D5" d="M23 42h1v1h-1z" />
    <path fill="#BD88C7" d="M24 42h1v1h-1z" />
    <path fill="#F0C1E5" d="M25 42h1v1h-1z" />
    <path fill="#FFCCED" d="M26 42h1v1h-1zM27 42h1v1h-1zM28 42h1v1h-1z" />
    <path fill="#F0C1E5" d="M29 42h1v1h-1zM30 42h1v1h-1z" />
    <path fill="#D8A7D5" d="M31 42h1v1h-1z" />
    <path fill="#BD88C7" d="M32 42h1v1h-1z" />
    <path fill="#D8A7D5" d="M33 42h1v1h-1z" />
    <path fill="#E5B4E7"
        d="M34 42h1v1h-1zM35 42h1v1h-1zM36 42h1v1h-1zM37 42h1v1h-1zM38 42h1v1h-1zM39 42h1v1h-1zM40 42h1v1h-1zM41 42h1v1h-1z" />
    <path fill="#D8A7D5" d="M42 42h1v1h-1zM43 42h1v1h-1zM44 42h1v1h-1z" />
    <path fill="#BD88C7" d="M45 42h1v1h-1z" />
    <path fill="#FFCCED" d="M46 42h1v1h-1z" />
    <path fill="#FFD9F0" d="M47 42h1v1h-1z" />
    <path fill="#F0C1E5" d="M48 42h1v1h-1z" />
    <path fill="#BD88C7" d="M49 42h1v1h-1z" />
    <path fill="#D8A7D5" d="M9 43h1v1H9z" />
    <path fill="#E5B4E7" d="M10 43h1v1h-1z" />
    <path fill="#BD88C7" d="M11 43h1v1h-1z" />
    <path fill="#D8A7D5" d="M12 43h1v1h-1z" />
    <path fill="#E5B4E7"
        d="M13 43h1v1h-1zM14 43h1v1h-1zM15 43h1v1h-1zM16 43h1v1h-1zM17 43h1v1h-1zM18 43h1v1h-1zM19 43h1v1h-1z" />
    <path fill="#D8A7D5" d="M20 43h1v1h-1zM21 43h1v1h-1zM22 43h1v1h-1z" />
    <path fill="#BD88C7" d="M23 43h1v1h-1z" />
    <path fill="#F0C1E5" d="M24 43h1v1h-1z" />
    <path fill="#FFCCED" d="M25 43h1v1h-1zM26 43h1v1h-1zM27 43h1v1h-1z" />
    <path fill="#F0C1E5" d="M28 43h1v1h-1zM29 43h1v1h-1z" />
    <path fill="#E5B4E7" d="M30 43h1v1h-1z" />
    <path fill="#D8A7D5" d="M31 43h1v1h-1z" />
    <path fill="#BD88C7" d="M32 43h1v1h-1zM33 43h1v1h-1z" />
    <path fill="#D8A7D5"
        d="M34 43h1v1h-1zM35 43h1v1h-1zM36 43h1v1h-1zM37 43h1v1h-1zM38 43h1v1h-1zM39 43h1v1h-1zM40 43h1v1h-1zM41 43h1v1h-1zM42 43h1v1h-1zM43 43h1v1h-1z" />
    <path fill="#BD88C7" d="M44 43h1v1h-1z" />
    <path fill="#F0C1E5" d="M45 43h1v1h-1z" />
    <path fill="#FFD9F0" d="M46 43h1v1h-1z" />
    <path fill="#F0C1E5" d="M47 43h1v1h-1z" />
    <path fill="#BD88C7" d="M48 43h1v1h-1z" />
    <path fill="#D8A7D5" d="M8 44h1v1H8z" />
    <path fill="#E5B4E7" d="M9 44h1v1H9z" />
    <path fill="#F0C1E5" d="M10 44h1v1h-1z" />
    <path fill="#E5B4E7" d="M11 44h1v1h-1z" />
    <path fill="#BD88C7" d="M12 44h1v1h-1z" />
    <path fill="#D8A7D5"
        d="M13 44h1v1h-1zM14 44h1v1h-1zM15 44h1v1h-1zM16 44h1v1h-1zM17 44h1v1h-1zM18 44h1v1h-1zM19 44h1v1h-1zM20 44h1v1h-1zM21 44h1v1h-1z" />
    <path fill="#BD88C7" d="M22 44h1v1h-1z" />
    <path fill="#F0C1E5" d="M23 44h1v1h-1z" />
    <path fill="#FFCCED" d="M24 44h1v1h-1zM25 44h1v1h-1z" />
    <path fill="#F0C1E5" d="M26 44h1v1h-1zM27 44h1v1h-1zM28 44h1v1h-1z" />
    <path fill="#E5B4E7" d="M29 44h1v1h-1zM30 44h1v1h-1z" />
    <path fill="#BD88C7"
        d="M31 44h1v1h-1zM37 44h1v1h-1zM38 44h1v1h-1zM39 44h1v1h-1zM40 44h1v1h-1zM41 44h1v1h-1zM42 44h1v1h-1zM43 44h1v1h-1z" />
    <path fill="#F0C1E5" d="M44 44h1v1h-1z" />
    <path fill="#FFD9F0" d="M45 44h1v1h-1z" />
    <path fill="#F0C1E5" d="M46 44h1v1h-1z" />
    <path fill="#BD88C7" d="M47 44h1v1h-1z" />
    <path fill="#D8A7D5" d="M8 45h1v1H8z" />
    <path fill="#E5B4E7" d="M9 45h1v1H9z" />
    <path fill="#FFCCED" d="M10 45h1v1h-1z" />
    <path fill="#F0C1E5" d="M11 45h1v1h-1z" />
    <path fill="#E5B4E7" d="M12 45h1v1h-1z" />
    <path fill="#BD88C7" d="M13 45h1v1h-1z" />
    <path fill="#D8A7D5"
        d="M14 45h1v1h-1zM15 45h1v1h-1zM16 45h1v1h-1zM17 45h1v1h-1zM18 45h1v1h-1zM19 45h1v1h-1zM20 45h1v1h-1z" />
    <path fill="#BD88C7" d="M21 45h1v1h-1z" />
    <path fill="#F0C1E5" d="M22 45h1v1h-1zM23 45h1v1h-1z" />
    <path fill="#FFCCED" d="M24 45h1v1h-1z" />
    <path fill="#F0C1E5" d="M25 45h1v1h-1zM26 45h1v1h-1zM27 45h1v1h-1z" />
    <path fill="#E5B4E7" d="M28 45h1v1h-1zM29 45h1v1h-1z" />
    <path fill="#BD88C7" d="M30 45h1v1h-1z" />
    <path fill="#D8A7D5" d="M42 45h1v1h-1z" />
    <path fill="#F0C1E5" d="M43 45h1v1h-1z" />
    <path fill="#FFCCED" d="M44 45h1v1h-1z" />
    <path fill="#F0C1E5" d="M45 45h1v1h-1z" />
    <path fill="#BD88C7" d="M46 45h1v1h-1z" />
    <path fill="#D8A7D5" d="M8 46h1v1H8z" />
    <path fill="#E5B4E7" d="M9 46h1v1H9zM10 46h1v1h-1z" />
    <path fill="#FFCCED" d="M11 46h1v1h-1z" />
    <path fill="#F0C1E5" d="M12 46h1v1h-1z" />
    <path fill="#E5B4E7" d="M13 46h1v1h-1z" />
    <path fill="#BD88C7"
        d="M14 46h1v1h-1zM15 46h1v1h-1zM16 46h1v1h-1zM17 46h1v1h-1zM18 46h1v1h-1zM19 46h1v1h-1zM20 46h1v1h-1z" />
    <path fill="#D8A7D5" d="M21 46h1v1h-1z" />
    <path fill="#E5B4E7" d="M22 46h1v1h-1z" />
    <path fill="#F0C1E5" d="M23 46h1v1h-1zM24 46h1v1h-1zM25 46h1v1h-1z" />
    <path fill="#E5B4E7" d="M26 46h1v1h-1zM27 46h1v1h-1z" />
    <path fill="#D8A7D5" d="M28 46h1v1h-1z" />
    <path fill="#BD88C7" d="M29 46h1v1h-1z" />
    <path fill="#D8A7D5" d="M40 46h1v1h-1zM41 46h1v1h-1z" />
    <path fill="#F0C1E5" d="M42 46h1v1h-1z" />
    <path fill="#FFCCED" d="M43 46h1v1h-1z" />
    <path fill="#F0C1E5" d="M44 46h1v1h-1z" />
    <path fill="#BD88C7" d="M45 46h1v1h-1z" />
    <path fill="#D8A7D5" d="M9 47h1v1H9z" />
    <path fill="#E5B4E7" d="M10 47h1v1h-1zM11 47h1v1h-1z" />
    <path fill="#FFCCED" d="M12 47h1v1h-1z" />
    <path fill="#F0C1E5" d="M13 47h1v1h-1z" />
    <path fill="#E5B4E7" d="M14 47h1v1h-1z" />
    <path fill="#D8A7D5" d="M15 47h1v1h-1z" />
    <path fill="#BD88C7" d="M20 47h1v1h-1z" />
    <path fill="#D8A7D5" d="M21 47h1v1h-1z" />
    <path fill="#E5B4E7" d="M22 47h1v1h-1zM23 47h1v1h-1zM24 47h1v1h-1zM25 47h1v1h-1zM26 47h1v1h-1z" />
    <path fill="#D8A7D5" d="M27 47h1v1h-1z" />
    <path fill="#BD88C7" d="M28 47h1v1h-1z" />
    <path fill="#D8A7D5" d="M39 47h1v1h-1z" />
    <path fill="#E5B4E7" d="M40 47h1v1h-1z" />
    <path fill="#F0C1E5" d="M41 47h1v1h-1zM42 47h1v1h-1z" />
    <path fill="#E5B4E7" d="M43 47h1v1h-1z" />
    <path fill="#BD88C7" d="M44 47h1v1h-1z" />
    <path fill="#D8A7D5" d="M10 48h1v1h-1zM11 48h1v1h-1z" />
    <path fill="#E5B4E7" d="M12 48h1v1h-1zM13 48h1v1h-1z" />
    <path fill="#D8A7D5" d="M14 48h1v1h-1z" />
    <path fill="#BD88C7" d="M15 48h1v1h-1zM21 48h1v1h-1z" />
    <path fill="#D8A7D5" d="M22 48h1v1h-1zM23 48h1v1h-1zM24 48h1v1h-1zM25 48h1v1h-1z" />
    <path fill="#BD88C7" d="M26 48h1v1h-1zM27 48h1v1h-1z" />
    <path fill="#D8A7D5" d="M39 48h1v1h-1zM40 48h1v1h-1zM41 48h1v1h-1z" />
    <path fill="#BD88C7"
        d="M42 48h1v1h-1zM43 48h1v1h-1zM11 49h1v1h-1zM12 49h1v1h-1zM13 49h1v1h-1zM14 49h1v1h-1zM22 49h1v1h-1zM23 49h1v1h-1zM24 49h1v1h-1zM25 49h1v1h-1z" />
</svg>